<?xml version="1.0" encoding="iso-8859-1"?>
<!-- Generator: Adobe Illustrator 26.2.1, SVG Export Plug-In . SVG Version: 6.00 Build 0)  -->
<svg version="1.1" xmlns="http://www.w3.org/2000/svg" xmlns:xlink="http://www.w3.org/1999/xlink" x="0px" y="0px"
	 viewBox="0 0 3710 3710" style="enable-background:new 0 0 3710 3710;" xml:space="preserve">
<g id="Background">
</g>
<g id="Illustration">
	<path style="fill:#F4F7FA;" d="M3226.112,1643.768c-55.755-364.947-100.516-617.159-301.854-755.362
		c-339.607-233.115-718.88,145.32-1199.947-108.615c-236.859-125.028-245.737-269.987-446.337-289.229
		c-354.904-34.042-645.549,389.502-670.737,425.825c-153.043,220.692-204.164,489.795-142.122,746.35
		c40.295,166.636,67.526,339.097,60.051,510.326c-13.006,298.006-5.522,576.172,283.687,753.895
		c258.227,158.687,583.214,298.643,893.256,323.155c210.701,16.661,446.99-10.299,650.066-65.154
		C3387.1,2905.392,3302.773,2145.55,3226.112,1643.768z"/>
	
		<linearGradient id="SVGID_1_" gradientUnits="userSpaceOnUse" x1="993.7991" y1="764.4247" x2="2399.804" y2="764.4247" gradientTransform="matrix(0.9893 0.1457 -0.1457 0.9893 455.7863 -94.9167)">
		<stop  offset="0.0036" style="stop-color:#E38DDD"/>
		<stop  offset="1" style="stop-color:#9571F6"/>
	</linearGradient>
	<path style="fill:url(#SVGID_1_);" d="M2458.507,538.63c-295.594-204.653-740.968-1.48-942.552,262.692
		c-54.155,70.97-88.707,143.775-111.211,208.655c-84.731,116.171-135.412,221.343-139.848,230.688
		c-7.01,14.761-0.726,32.403,14.031,39.413c0.725,0.347,1.459,0.657,2.196,0.938c14.27,5.436,30.555-0.927,37.227-14.96
		c2.255-4.737,228.747-474.357,524.042-516.388c102.978-14.654,205.623,11.886,295.821,52.852c6.34,2.879,9.297,10.233,6.716,16.7
		c-2.581,6.467-9.787,9.755-16.369,7.485c-171.037-58.979-382.628-57.967-549.104,178.084c32.456-9.869,66.96-15.976,103.413-16.198
		c207.998-1.276,296.322,185.35,537.49,246.402c104.296,26.403,259.617,35.001,473.273-54.922
		C2723.633,920.13,2642.385,665.936,2458.507,538.63z"/>
	<g>
		
			<linearGradient id="SVGID_00000059270147269678281810000002146637125017526703_" gradientUnits="userSpaceOnUse" x1="2088.7104" y1="891.4094" x2="2076.6907" y2="1696.7328">
			<stop  offset="0" style="stop-color:#40447E"/>
			<stop  offset="0.9964" style="stop-color:#3C3B6B"/>
		</linearGradient>
		<path style="fill:url(#SVGID_00000059270147269678281810000002146637125017526703_);" d="M2364.562,897.498
			c0-29.727-126.038-53.826-281.512-53.826c-155.475,0-281.512,24.098-281.512,53.826l0,0l0,0v746.374
			c0,29.727,126.037,53.826,281.512,53.826c155.474,0,281.512-24.099,281.512-53.826V897.498L2364.562,897.498L2364.562,897.498z"/>
		
			<linearGradient id="SVGID_00000106868625894948075520000013174109981732471963_" gradientUnits="userSpaceOnUse" x1="1490.8452" y1="1994.8733" x2="2675.2542" y2="1994.8733">
			<stop  offset="0" style="stop-color:#40447E"/>
			<stop  offset="0.9964" style="stop-color:#3C3B6B"/>
		</linearGradient>
		<path style="fill:url(#SVGID_00000106868625894948075520000013174109981732471963_);" d="M2675.254,1052.277
			c0-62.536-265.139-113.23-592.205-113.23s-592.204,50.695-592.204,113.23l0,0l0,0v1885.191
			c0,62.535,265.139,113.231,592.204,113.231s592.205-50.696,592.205-113.231V1052.277L2675.254,1052.277L2675.254,1052.277z"/>
		<g>
			
				<linearGradient id="SVGID_00000123436589587808305690000017003186571819062674_" gradientUnits="userSpaceOnUse" x1="989.4601" y1="3307.4976" x2="2190.1006" y2="1175.3295">
				<stop  offset="0" style="stop-color:#32BAA5"/>
				<stop  offset="0.4449" style="stop-color:#51EBE8"/>
				<stop  offset="1" style="stop-color:#5CFDC3"/>
			</linearGradient>
			<path style="opacity:0.95;fill:url(#SVGID_00000123436589587808305690000017003186571819062674_);" d="M2601.891,1654.204
				v-577.532c-18.335-8.84-62.42-25.19-157.573-39.926c-101.318-15.694-229.619-24.336-361.268-24.336
				c-131.65,0-259.951,8.642-361.27,24.336c-95.151,14.736-139.238,31.085-157.573,39.926v579.587
				C1931.108,1636.301,2274.16,1635.628,2601.891,1654.204z"/>
			
				<linearGradient id="SVGID_00000016033535375978834190000015920575228122464183_" gradientUnits="userSpaceOnUse" x1="1259.0054" y1="3459.2812" x2="2459.6462" y2="1327.1125">
				<stop  offset="0" style="stop-color:#32BAA5"/>
				<stop  offset="0.4449" style="stop-color:#51EBE8"/>
				<stop  offset="1" style="stop-color:#5CFDC3"/>
			</linearGradient>
			<path style="opacity:0.95;fill:url(#SVGID_00000016033535375978834190000015920575228122464183_);" d="M2601.891,2299.984
				v-610.221c-327.598-18.649-670.625-17.984-1037.684,2.045v606.129C1931.266,2317.966,2274.293,2318.634,2601.891,2299.984z"/>
			
				<linearGradient id="SVGID_00000087406574938265515330000006481386018748848000_" gradientUnits="userSpaceOnUse" x1="1527.2389" y1="3610.321" x2="2727.8806" y2="1478.1509">
				<stop  offset="0" style="stop-color:#32BAA5"/>
				<stop  offset="0.4449" style="stop-color:#51EBE8"/>
				<stop  offset="1" style="stop-color:#5CFDC3"/>
			</linearGradient>
			<path style="opacity:0.95;fill:url(#SVGID_00000087406574938265515330000006481386018748848000_);" d="M2116.305,2348.996
				c-178.432,0-362.067-5.172-552.098-15.509v579.587c18.335,8.841,62.422,25.189,157.573,39.927
				c101.321,15.693,229.622,24.336,361.27,24.336c131.648,0,259.948-8.643,361.268-24.336
				c95.154-14.738,139.238-31.086,157.573-39.927v-577.532C2443.902,2344.497,2282.365,2348.996,2116.305,2348.996z"/>
		</g>
		
			<linearGradient id="SVGID_00000159440687392853360320000014695893130938569401_" gradientUnits="userSpaceOnUse" x1="1490.8452" y1="1999.5223" x2="2496.5828" y2="1999.5223">
			<stop  offset="0" style="stop-color:#24ABB5"/>
			<stop  offset="1" style="stop-color:#40CF9F"/>
		</linearGradient>
		<path style="opacity:0.3;fill:url(#SVGID_00000159440687392853360320000014695893130938569401_);" d="M1843.391,2069.476
			c-74.297-302.847,234.461-480.983,179.762-804.647c-21.053-124.577-89.032-229.477-175.395-316.484
			c-209.994,17.404-356.913,57.385-356.913,103.932v1885.191c0,62.536,265.138,113.232,592.204,113.232
			c160.91,0,306.801-12.276,413.534-32.191c-1.452-167.701-44.296-287.694-96.788-375.509
			C2226.498,2353.081,1913.466,2355.108,1843.391,2069.476z"/>
	</g>
	<g>
		
			<linearGradient id="SVGID_00000031901352065641009750000014747699071345132727_" gradientUnits="userSpaceOnUse" x1="3191.6111" y1="854.9653" x2="2494.7275" y2="2000.34" gradientTransform="matrix(0.9859 0.1676 -0.1676 0.9859 468.5675 -72.8968)">
			<stop  offset="0.0036" style="stop-color:#E38DDD"/>
			<stop  offset="1" style="stop-color:#9571F6"/>
		</linearGradient>
		<path style="fill:url(#SVGID_00000031901352065641009750000014747699071345132727_);" d="M2963.061,2687.604
			c304.905-190.504,294.522-679.921,131.662-969.576c-43.752-77.815-96.946-138.354-147.629-184.691
			c-73.168-123.779-149.705-211.937-156.534-219.707c-10.782-12.278-29.472-13.487-41.748-2.708
			c-0.604,0.529-1.181,1.079-1.731,1.646c-10.637,10.954-11.237,28.429-0.989,40.107c3.459,3.947,345.147,397.763,266.915,685.591
			c-35.365,130.094-134.061,232.295-232.13,305.438c-3.985,2.972-9.605,2.271-12.737-1.589c-3.132-3.86-2.657-9.5,1.068-12.791
			c149.719-132.298,288.266-348.33,113.527-633.477c-3.777,33.712-11.82,67.816-26.039,101.383
			c-81.122,191.53-287.465,198.81-438.953,396.143c-65.514,85.339-134.863,224.584-136.81,456.384
			C2507.793,2780.155,2773.39,2806.109,2963.061,2687.604z"/>
		
			<linearGradient id="SVGID_00000164500256792029385220000009597654570219934382_" gradientUnits="userSpaceOnUse" x1="471.3058" y1="1883.5917" x2="1790.7631" y2="1883.5917" gradientTransform="matrix(0.9513 0.3083 -0.3083 0.9513 913.0245 -113.8641)">
			<stop  offset="0.0036" style="stop-color:#E38DDD"/>
			<stop  offset="1" style="stop-color:#9571F6"/>
		</linearGradient>
		<path style="fill:url(#SVGID_00000164500256792029385220000009597654570219934382_);" d="M779.343,1831.346
			c-85.728,349.156,262.969,692.736,581.675,786.807c85.621,25.273,165.963,31.577,234.602,29.454
			c138.754,37.708,255.087,47.533,265.399,48.342c16.291,1.282,30.531-10.882,31.814-27.168c0.065-0.801,0.094-1.598,0.093-2.386
			c-0.013-15.27-11.768-28.214-27.256-29.44c-5.231-0.417-524.752-44.462-669.368-305.329
			c-60.769-109.628-65.482-240.146-50.336-355.039c0.725-5.501,5.657-9.454,11.184-8.963c5.527,0.491,9.679,5.25,9.431,10.793
			c-8.735,194.678,51.422,428.742,361.86,507.825c-20.798-26.799-38.813-56.853-52.026-90.829
			c-75.398-193.855,67.436-342.949,38.431-590.028c-12.543-106.853-59.924-255.02-220.156-422.535
			C1041.151,1447.561,832.671,1614.149,779.343,1831.346z"/>
	</g>
	<g>
		<g>
			
				<linearGradient id="SVGID_00000018952608930437629140000007621225452238263985_" gradientUnits="userSpaceOnUse" x1="654.3157" y1="2434.3989" x2="2073.1882" y2="2434.3989">
				<stop  offset="0" style="stop-color:#AB316D"/>
				<stop  offset="1" style="stop-color:#792D3D"/>
			</linearGradient>
			<path style="fill:url(#SVGID_00000018952608930437629140000007621225452238263985_);" d="M657.484,2418.051l-3.14,95.805
				c-0.921,28.11,20.78,49.852,48.452,48.571l50.289-2.328c4.803,45.539,14.432,89.278,28.416,130.689l-42.478,26.473
				c-24.398,15.201-33.62,46.694-20.592,70.33l44.371,80.487c13.004,23.593,75.8,37.617,100.131,22.38l7.669-32.445
				c26.892,34.913,57.683,66.397,91.751,93.88l-23.244,39.937c-14.528,24.966-7.393,55.518,15.928,68.234l79.375,43.264
				c23.248,12.671,98.728,14.641,113.188-10.281l-22.654-50.282c41.214,14.611,84.748,24.556,130.031,29.334l-1.391,42.448
				c-0.914,27.854,20.394,49.201,47.573,47.69l92.479-5.144c27.082-1.507,49.758-25.237,50.669-53.011l1.387-42.322
				c45.439-9.669,89.356-24.287,131.165-43.265l19.538,35.855c12.676,23.263,90.509,35.231,114.247,20.117l32.491-56.823
				c23.665-15.074,32.618-46.099,20.006-69.328l-20.198-37.196c35.14-30.73,67.262-65.027,95.745-102.263l37.523,20.872
				c22.67,12.61,89.818,19.06,103.932-5.5l10.731-99.782c14.089-24.518,7.192-54.63-15.413-67.282l-39.434-22.077
				c16.199-42.131,28.315-86.119,35.874-131.417l48.428-2.242c26.586-1.23,48.855-24.536,49.758-52.059l3.075-93.81
				c0.902-27.525-19.903-48.897-46.488-47.743l-51.272,2.224c-5.831-43.562-16.126-85.383-30.43-124.994l46.928-29.39
				c23.501-14.726,32.395-45.546,19.875-68.871l8.929-93.219c-12.542-23.365-93.453-16.757-117.017-2.074l-49.384,30.774
				c-25.655-32.219-54.704-61.425-86.65-87.135l30.416-52.419c14.173-24.423,7.231-54.742-15.514-67.728l-33.83-50.859
				c-22.816-13.026-96.691,2.749-110.931,27.22l-31.261,53.714c-38.122-13.582-78.266-23.233-120.028-28.437l2.016-61.494
				c0.91-27.774-20.275-49.537-47.337-48.615l-92.414,3.148c-27.16,0.925-49.93,24.249-50.844,52.103l-2.021,61.668
				c-42.493,8.241-83.75,20.868-123.314,37.343l18.363-65.059c-12.866-23.696-89.435-17.81-113.584-3.012l-82.449,50.527
				c-24.223,14.843-33.386,46.132-20.454,69.86l27.718,50.862c-34.512,28.548-66.345,60.476-94.938,95.256l2.087-32.59
				c-23.401-13.097-105.225,1.595-119.818,26.426l-49.785,84.71c-14.618,24.875-7.435,55.633,16.035,68.694l46.768,26.01
				c-17.514,41.641-31.029,85.223-40.028,130.217l-53.238,2.311C681.598,2366.186,658.405,2389.942,657.484,2418.051z
				 M892.886,2464.98c8.883-271.054,230.978-499.241,494.599-509.615c262.024-10.311,466.149,198.699,457.362,466.786
				c-8.786,268.087-227.238,496.102-489.357,509.371C1091.771,2944.874,884.002,2736.033,892.886,2464.98z"/>
			
				<linearGradient id="SVGID_00000146501252400586578250000000475496944910843068_" gradientUnits="userSpaceOnUse" x1="1695.5358" y1="2000.3521" x2="960.5889" y2="3180.4094">
				<stop  offset="0" style="stop-color:#FCB148"/>
				<stop  offset="0.0521" style="stop-color:#FDBA46"/>
				<stop  offset="0.1424" style="stop-color:#FFC244"/>
				<stop  offset="0.3183" style="stop-color:#FFC444"/>
				<stop  offset="0.4849" style="stop-color:#FDB946"/>
				<stop  offset="0.7754" style="stop-color:#F99C4D"/>
				<stop  offset="0.8658" style="stop-color:#F8924F"/>
				<stop  offset="1" style="stop-color:#F8924F"/>
			</linearGradient>
			<path style="opacity:0.95;fill:url(#SVGID_00000146501252400586578250000000475496944910843068_);" d="M719.418,2417.237
				l-3.14,95.805c-0.922,28.109,20.78,49.851,48.451,48.571l50.29-2.329c4.803,45.539,14.432,89.277,28.416,130.688l-42.477,26.473
				c-24.398,15.201-33.621,46.695-20.593,70.331l44.371,80.487c13.005,23.594,43.278,30.348,67.608,15.111l40.193-25.177
				c26.892,34.913,57.682,66.397,91.75,93.88l-23.244,39.937c-14.529,24.965-7.392,55.518,15.928,68.234l79.375,43.264
				c23.249,12.671,53.81,2.73,68.269-22.191l22.266-38.373c41.214,14.612,84.748,24.556,130.031,29.334l-1.391,42.449
				c-0.913,27.852,20.394,49.2,47.572,47.688l92.481-5.144c27.081-1.505,49.757-25.237,50.668-53.01l1.387-42.323
				c45.438-9.669,89.355-24.286,131.165-43.264l19.538,35.856c12.676,23.264,42.205,29.851,65.942,14.738l80.796-51.444
				c23.665-15.074,32.618-46.1,20.006-69.328l-20.198-37.197c35.139-30.73,67.262-65.027,95.745-102.263l37.522,20.873
				c22.67,12.61,52.482,2.914,66.596-21.647l48.067-83.636c14.088-24.517,7.192-54.63-15.412-67.282l-39.435-22.076
				c16.199-42.133,28.315-86.121,35.874-131.419l48.427-2.242c26.588-1.231,48.857-24.535,49.76-52.059l3.074-93.81
				c0.902-27.524-19.903-48.897-46.488-47.743l-51.273,2.225c-5.83-43.562-16.125-85.382-30.429-124.994l46.928-29.39
				c23.5-14.724,32.394-45.546,19.874-68.869l-42.718-79.565c-12.542-23.365-41.805-30.413-65.37-15.729l-49.384,30.774
				c-25.656-32.22-54.704-61.425-86.651-87.136l30.416-52.418c14.174-24.424,7.232-54.743-15.514-67.729l-77.655-44.344
				c-22.816-13.026-52.864-3.766-67.105,20.706l-31.261,53.713c-38.121-13.582-78.266-23.233-120.027-28.438l2.016-61.493
				c0.91-27.774-20.275-49.538-47.337-48.616l-92.416,3.149c-27.158,0.925-49.93,24.25-50.842,52.102l-2.021,61.668
				c-42.493,8.242-83.75,20.869-123.314,37.344l-28.208-51.947c-12.866-23.697-42.864-30.922-67.013-16.125l-82.448,50.528
				c-24.224,14.842-33.387,46.131-20.455,69.859l27.719,50.863c-34.513,28.548-66.346,60.475-94.938,95.255l-48.931-27.391
				c-23.401-13.097-54.208-3.604-68.799,21.227l-49.785,84.71c-14.618,24.876-7.435,55.634,16.035,68.694l46.767,26.011
				c-17.515,41.641-31.03,85.223-40.028,130.217l-53.239,2.31C743.532,2365.371,720.339,2389.127,719.418,2417.237z
				 M934.627,2465.073c9.261-282.553,240.775-520.419,515.582-531.234c273.139-10.749,485.926,207.13,476.766,486.589
				c-9.159,279.46-236.878,517.149-510.118,530.982C1141.949,2965.326,925.365,2747.627,934.627,2465.073z"/>
		</g>
		<g>
			<defs>
				<path id="SVGID_00000183940557669411528470000007504340393307111056_" d="M1846.084,1300.61l-811.779-121.904
					c0,0-461.801,32.518-468.701,34.818c0,0,1.785,639.104,1.785,648.305c0,9.2,376.517,520.126,376.519,520.128
					c-5.18,27.143-8.355,54.901-9.28,83.117c-9.262,282.553,207.322,500.253,482.229,486.336
					c209.512-10.607,392.25-152.829,470.228-344.574l0.002,0l116.118-206.79l93.862-729.124L1846.084,1300.61z"/>
			</defs>
			<clipPath id="SVGID_00000108996997504631004100000011579446125611315355_">
				<use xlink:href="#SVGID_00000183940557669411528470000007504340393307111056_"  style="overflow:visible;"/>
			</clipPath>
			<g style="clip-path:url(#SVGID_00000108996997504631004100000011579446125611315355_);">
				
					<linearGradient id="SVGID_00000176731099388816323330000012934499063598418355_" gradientUnits="userSpaceOnUse" x1="-5633.2695" y1="16.7853" x2="-5901.3291" y2="820.9673" gradientTransform="matrix(0.9488 -0.316 0.316 0.9488 7220.3066 -94.4625)">
					<stop  offset="0" style="stop-color:#AB316D"/>
					<stop  offset="1" style="stop-color:#792D3D"/>
				</linearGradient>
				<path style="fill:url(#SVGID_00000176731099388816323330000012934499063598418355_);" d="M1826.131,2008.993
					c6.303-24.814,30.18-115.565,45.624-155.737c21.385-55.626,54.054-123.825,61.722-121.09c4.5,1.605-0.603,27.284-1.349,31.04
					c-6.726,33.85-20.044,38.513-17.964,57.145c2.224,19.922,18.232,21.593,19.348,43.533c0.907,17.837-8.919,31.566-10.462,33.662
					c-10.909,14.811-22.737,13.103-34.143,25.096c-18.36,19.306-23.097,79.015-23.084,105.964L1826.131,2008.993z"/>
				
					<linearGradient id="SVGID_00000142881942911222621020000001776280734223139760_" gradientUnits="userSpaceOnUse" x1="3970.5129" y1="2309.5271" x2="4508.6895" y2="2309.5271" gradientTransform="matrix(-1 0 0 1 5936.8584 0)">
					<stop  offset="0" style="stop-color:#FF9085"/>
					<stop  offset="1" style="stop-color:#FB6FBB"/>
				</linearGradient>
				<path style="fill:url(#SVGID_00000142881942911222621020000001776280734223139760_);" d="M1825.562,1990.877
					c15.859,6.696,31.719,13.393,47.579,20.089c21.386,36.399,49.751,92.923,67.527,166.334
					c19.129,79.006,62.735,259.097-40.241,367.578c-78.534,82.734-203.716,83.327-251.32,83.298
					c-44.026-0.026-83.239,0.277-120.647-20.892c-81.81-46.299-115.251-171.992-94.1-314.019
					c85.371,80.69,187.563,111.238,249.523,75.068c48.724-28.444,70.996-97.243,80.497-126.501
					c14.129-43.508,9.763-63.845,22.061-124.08C1797.811,2062.065,1813.998,2018.439,1825.562,1990.877z"/>
				<g style="opacity:0.3;">
					
						<linearGradient id="SVGID_00000075850023157166310220000014197910596914443965_" gradientUnits="userSpaceOnUse" x1="3970.5129" y1="2315.3469" x2="4508.6885" y2="2315.3469" gradientTransform="matrix(-1 0 0 1 5936.8584 0)">
						<stop  offset="0" style="stop-color:#FF9085"/>
						<stop  offset="1" style="stop-color:#FB6FBB"/>
					</linearGradient>
					<path style="fill:url(#SVGID_00000075850023157166310220000014197910596914443965_);" d="M1709.077,2547.833
						c25.954-34.997,12.342-75.372,54.174-116.088c52.895-51.484,115.803-26.974,141.24-69.653
						c20.762-34.833-6.316-76.048-27.087-141.24c-16.111-50.567-30.707-122.775-24.274-218.337
						c6.671,2.816,13.341,5.633,20.012,8.449c21.386,36.399,49.751,92.923,67.527,166.334
						c19.129,79.006,62.735,259.097-40.241,367.578c-78.534,82.734-203.716,83.327-251.32,83.298
						c-44.026-0.026-83.239,0.277-120.647-20.892c-10.352-5.859-19.924-12.999-28.715-21.273
						C1631.828,2604.656,1685.777,2579.25,1709.077,2547.833z"/>
				</g>
				
					<linearGradient id="SVGID_00000031927884990390731810000002635419131377676705_" gradientUnits="userSpaceOnUse" x1="4354.6831" y1="2636.1121" x2="4950.9858" y2="2636.1121" gradientTransform="matrix(-1 0 0 1 5936.8584 0)">
					<stop  offset="0" style="stop-color:#FF9085"/>
					<stop  offset="1" style="stop-color:#FB6FBB"/>
				</linearGradient>
				<path style="fill:url(#SVGID_00000031927884990390731810000002635419131377676705_);" d="M986.065,2932.932
					c-0.899-43.963-3.256-286.542,114.189-460.983c26.921-39.986,74.55-110.731,165.996-157.538
					c35.647-18.246,67.795-27.656,89.871-32.776c26.08,3.877,52.16,7.754,78.24,11.631c24.962,22.747,58.872,58.421,88.813,108.902
					c18.958,31.964,50.334,84.863,57.6,153.147c8.469,79.58-23.162,110.946-49.142,234.883
					c-14.09,67.217-18.536,123.583-20.089,160.71c-90.223,7.753-180.446,15.507-270.669,23.26
					c-1.427-42.766-5.174-90.328-12.687-141.678c-7.775-53.142-18.257-101.275-29.605-143.794
					c-12.127,48.316-22.808,104.747-28.547,168.111c-3.972,43.855-4.996,84.609-4.229,121.591
					c-10.961,4.319-72.677,27.448-132.163-4.23C1010.41,2961.795,995.19,2945.148,986.065,2932.932z"/>
				
					<linearGradient id="SVGID_00000018199141564954538360000016436685560587215274_" gradientUnits="userSpaceOnUse" x1="2127.3857" y1="1989.6327" x2="3270.1768" y2="1989.6327" gradientTransform="matrix(-0.853 -0.522 -0.522 0.853 4480.771 1403.0635)">
					<stop  offset="0" style="stop-color:#311944"/>
					<stop  offset="1" style="stop-color:#6B3976"/>
				</linearGradient>
				<path style="fill:url(#SVGID_00000018199141564954538360000016436685560587215274_);" d="M1370.496,2199.008
					c77.007-10.431,115.51-15.647,141.451-36.545c56.684-45.666,69.047-129.103,58.759-187.848
					c-14.438-82.442-76.807-135.224-116.278-168.626c-50.716-42.919-62.338-31.912-81.555-59.132
					c-53.114-75.231,33.566-162.29,14.396-281.552c-21.151-131.589-156.186-209.215-191.093-227.496
					c-186.005-97.407-372.401,1.175-391.324,11.597c-175.326,96.564-244.562,300.148-221.45,455.917
					c6.609,44.541,23.516,158.488,101.06,195.648c74.672,35.783,142.171-30.02,247.69,16.987
					c14.742,6.567,59.415,26.469,94.092,71.731c39.161,51.115,28.605,86.323,71.606,138.821
					c34.867,42.568,76.245,61.462,84.581,65.138C1234.863,2216.763,1280.801,2211.156,1370.496,2199.008z"/>
				<g style="opacity:0.3;">
					
						<linearGradient id="SVGID_00000028291159670413783980000016252820421898185624_" gradientUnits="userSpaceOnUse" x1="2127.3818" y1="2117.3989" x2="3270.1799" y2="2117.3989" gradientTransform="matrix(-0.853 -0.522 -0.522 0.853 4480.771 1403.0635)">
						<stop  offset="0" style="stop-color:#311944"/>
						<stop  offset="1" style="stop-color:#6B3976"/>
					</linearGradient>
					<path style="fill:url(#SVGID_00000028291159670413783980000016252820421898185624_);" d="M766.523,1273.353
						c-119.967,154.946-138.165,226.085-115.43,256.731c31.811,42.879,136.135-3.738,188.629,58.72
						c47.216,56.178-7.931,128.697,36.188,179.029c55.767,63.62,171.283-20.984,249.294,36.494
						c92.848,68.412,3.156,242.742,94.268,338.954c27.596,29.141,74.775,54.206,160.506,54.441
						c-3.102,0.421-6.246,0.847-9.482,1.286c-89.696,12.149-135.633,17.755-188.065-5.36c-8.336-3.675-49.714-22.571-84.581-65.138
						c-43.002-52.498-32.446-87.706-71.606-138.821c-34.676-45.262-79.35-65.164-94.092-71.731
						c-105.519-47.007-173.018,18.796-247.689-16.987c-77.545-37.16-94.452-151.107-101.06-195.648
						C562.058,1561.456,619.493,1376.809,766.523,1273.353z"/>
				</g>
				
					<linearGradient id="SVGID_00000060725053475944521520000014089558124170297252_" gradientUnits="userSpaceOnUse" x1="4596.5615" y1="2466.4568" x2="4584.9526" y2="2092.074" gradientTransform="matrix(-1 0 0 1 5936.8584 0)">
					<stop  offset="0" style="stop-color:#AB316D"/>
					<stop  offset="1" style="stop-color:#792D3D"/>
				</linearGradient>
				<path style="fill:url(#SVGID_00000060725053475944521520000014089558124170297252_);" d="M1421.438,2163.943
					c0,0,2.195,56.502,0,94.432c-1.607,27.767,22.404,43.583,22.404,43.583s13.184,22.593-58.117,26.368s-140.682,0-140.682,0
					s69.712-46.366,85.637-58.687c15.925-12.322,24.47-104.442,14.273-162.786L1421.438,2163.943z"/>
				
					<linearGradient id="SVGID_00000040562404663413946660000004975897387355857312_" gradientUnits="userSpaceOnUse" x1="1656.9797" y1="2644.3298" x2="1762.9049" y2="2297.5327" gradientTransform="matrix(-1 0.0095 0.0095 1 3065.6179 -417.6746)">
					<stop  offset="0" style="stop-color:#AB316D"/>
					<stop  offset="1" style="stop-color:#792D3D"/>
				</linearGradient>
				<path style="fill:url(#SVGID_00000040562404663413946660000004975897387355857312_);" d="M1453.414,2025.938
					c0,0,37.118,87.146,37.429,140.011c0.311,52.864-36.365,83.557-64.526,70.767c-28.161-12.789-70.925-67.365-70.925-67.365
					s-5.535,14.855-27.179,0.258c-21.644-14.597-38.405-97.562,3.637-74.375c0,0-6.84-23.235,3.148-57.124
					C1344.986,2004.223,1440.622,1966.835,1453.414,2025.938z"/>
				<g style="opacity:0.3;">
					
						<linearGradient id="SVGID_00000110443826422842009290000012628701565575574973_" gradientUnits="userSpaceOnUse" x1="4354.6826" y1="2764.8948" x2="4950.9863" y2="2764.8948" gradientTransform="matrix(-1 0 0 1 5936.8584 0)">
						<stop  offset="0" style="stop-color:#FF9085"/>
						<stop  offset="1" style="stop-color:#FB6FBB"/>
					</linearGradient>
					<path style="fill:url(#SVGID_00000110443826422842009290000012628701565575574973_);" d="M1138.313,2820.639
						c31.452-49.356-16.503-92.144,3.869-170.262c17.384-66.66,73.997-118.695,94.805-110.283
						c28.75,11.623-27.742,131.817,29.022,187.675c37.682,37.081,86.799,7.949,137.37,40.631
						c33.349,21.552,66.86,69.718,69.477,185.831c-77.327,6.646-154.654,13.291-231.981,19.937
						c-1.427-42.766-5.174-90.329-12.687-141.678c-7.775-53.142-18.257-101.275-29.605-143.794
						c-12.127,48.316-22.808,104.747-28.547,168.111c-3.972,43.855-4.996,84.609-4.229,121.59
						c-10.961,4.32-72.677,27.449-132.163-4.229c-3.322-1.769-6.461-3.633-9.46-5.55c1.522-25.613,8.091-54.876,27.064-80.261
						C1082.08,2847.102,1115.559,2856.346,1138.313,2820.639z"/>
				</g>
			</g>
		</g>
	</g>
</g>
</svg>
